<?xml version="1.0" encoding="utf-8"?>
<!-- Svg Vector Icons : http://www.onlinewebfonts.com/icon -->
<!DOCTYPE svg PUBLIC "-//W3C//DTD SVG 1.1//EN" "http://www.w3.org/Graphics/SVG/1.1/DTD/svg11.dtd">
<svg version="1.1" xmlns="http://www.w3.org/2000/svg" xmlns:xlink="http://www.w3.org/1999/xlink" x="0px" y="0px" viewBox="0 0 1000 1000" enable-background="new 0 0 1000 1000" xml:space="preserve">
<metadata> Svg Vector Icons : http://www.onlinewebfonts.com/icon </metadata>
<g><path d="M707.3,943H283.2c-69,0-127.6-55.2-127.6-127.6V581c0-10.3-6.9-17.2-17.2-17.2H48.8l-6.9-3.4c-17.2-6.9-27.6-24.1-31-41.4c-3.4-17.2,3.4-37.9,17.2-48.3L400.5,98.4c55.2-55.2,141.4-55.2,196.5,0l375.8,372.3c13.8,13.8,17.2,27.6,17.2,44.8c0,17.2-10.3,31-24.1,41.4l-6.9,6.9H855.5c-10.3,0-17.2,6.9-17.2,17.2v234.4C834.9,887.9,776.2,943,707.3,943z M76.4,505.2h65.5c41.4,0,75.8,34.5,75.8,79.3v234.4c0,34.5,27.6,65.5,65.5,65.5h424.1c37.9,0,65.5-31,65.5-65.5V584.5c0-41.4,34.5-75.8,75.8-75.8H921L555.6,139.7c-31-31-82.7-31-113.8,0L76.4,505.2z"/><path d="M455.6,556.9v-55.2c0-10.3-10.3-20.7-20.7-20.7h-55.2c-10.3,0-20.7,10.3-20.7,20.7v55.2c0,10.3,10.3,20.7,20.7,20.7h55.2C445.3,574.1,455.6,567.2,455.6,556.9z"/><path d="M548.7,498.3v55.2c0,10.3,10.3,20.7,20.7,20.7h55.2c10.3,0,20.7-10.3,20.7-20.7v-55.2c0-10.3-10.3-20.7-20.7-20.7h-55.2C559,477.6,548.7,487.9,548.7,498.3z"/><path d="M455.6,698.2v-55.2c0-10.3-10.3-20.7-20.7-20.7h-55.2c-10.3,0-20.7,10.3-20.7,20.7v55.2c0,10.3,10.3,20.7,20.7,20.7h55.2C445.3,718.9,455.6,708.6,455.6,698.2z"/><path d="M548.7,643.1v55.2c0,10.3,10.3,20.7,20.7,20.7h55.2c10.3,0,20.7-10.3,20.7-20.7v-55.2c0-10.3-10.3-20.7-20.7-20.7h-55.2C559,622.4,548.7,632.7,548.7,643.1z"/></g>
</svg>